if (_typeface_js && _typeface_js.loadFace) _typeface_js.loadFace({"glyphs":{"S":{"x_min":37.5625,"x_max":600.390625,"ha":642,"o":"m 599 189 l 420 7 l 241 7 l 57 168 l 57 305 l 249 305 l 249 173 l 403 116 l 438 371 l 354 401 l 211 422 l 37 575 l 63 842 l 227 996 l 428 996 l 600 836 l 582 672 l 401 700 l 401 882 l 243 838 l 243 636 l 280 589 l 430 611 l 599 454 l 599 189 "},"/":{"x_min":0,"x_max":319.4375,"ha":317,"o":"m 319 1111 l 97 -136 l 0 0 l 200 1013 l 319 1111 "},"K":{"x_min":78,"x_max":604.734375,"ha":626,"o":"m 604 14 l 396 14 l 463 380 l 342 455 l 250 417 l 250 0 l 78 61 l 78 988 l 245 1018 l 245 592 l 292 607 l 388 1017 l 582 981 l 443 583 l 604 471 l 604 14 "},"7":{"x_min":46,"x_max":515.453125,"ha":567,"o":"m 494 782 l 261 0 l 69 36 l 361 811 l 46 738 l 46 927 l 515 927 l 494 782 "},"d":{"x_min":35,"x_max":553.390625,"ha":555,"o":"m 540 15 l 200 15 l 35 95 l 35 697 l 191 827 l 344 827 l 344 1053 l 502 996 l 502 144 l 553 153 l 540 15 m 384 178 l 341 680 l 221 712 l 221 133 l 384 178 "},",":{"x_min":56.9375,"x_max":262.5,"ha":308,"o":"m 238 38 l 126 -152 l 56 -104 l 138 12 l 63 0 l 113 169 l 262 234 l 238 38 "},"Y":{"x_min":39.78125,"x_max":596.609375,"ha":622,"o":"m 596 189 l 406 -11 l 210 -11 l 39 182 l 39 301 l 171 262 l 234 139 l 392 173 l 442 453 l 189 400 l 62 606 l 62 1003 l 223 875 l 223 597 l 373 567 l 429 936 l 596 1072 l 596 189 "},"E":{"x_min":72,"x_max":489.171875,"ha":520,"o":"m 472 24 l 72 -73 l 72 973 l 489 1014 l 466 809 l 245 887 l 205 556 l 435 609 l 435 459 l 199 459 l 254 119 l 489 190 l 472 24 "},"y":{"x_min":33.15625,"x_max":530,"ha":591,"o":"m 530 -134 l 362 -300 l 180 -300 l 41 -142 l 33 -70 l 208 -70 l 208 -151 l 346 -151 l 385 30 l 178 -16 l 79 201 l 79 793 l 242 834 l 178 226 l 328 109 l 416 834 l 530 903 l 530 -134 "},"\"":{"x_min":47,"x_max":394.71875,"ha":454,"o":"m 138 632 l 47 632 l 47 1019 l 200 1019 l 138 632 m 341 641 l 260 619 l 260 1018 l 394 991 l 341 641 "},"g":{"x_min":14.109375,"x_max":507,"ha":539,"o":"m 507 -186 l 322 -335 l 176 -335 l 18 -202 l 26 -122 l 187 -122 l 176 -208 l 325 -184 l 365 -51 l 175 -26 l 14 123 l 14 616 l 165 793 l 507 851 l 507 -186 m 403 56 l 403 690 l 175 643 l 132 166 l 403 56 "},"e":{"x_min":44,"x_max":519.375,"ha":537,"o":"m 472 161 l 344 6 l 197 6 l 44 104 l 44 677 l 195 834 l 341 806 l 519 705 l 469 446 l 201 385 l 169 200 l 338 121 l 299 263 l 481 263 l 472 161 m 343 556 l 343 680 l 197 720 l 197 495 l 343 556 "},"J":{"x_min":-1.71875,"x_max":558,"ha":608,"o":"m 558 157 l 384 7 l 138 7 l -1 147 l 35 276 l 231 369 l 167 116 l 352 193 l 441 935 l 105 818 l 210 1000 l 558 1072 l 558 157 "},"‐":{"x_min":61,"x_max":345.71875,"ha":400,"o":"m 334 400 l 61 400 l 61 534 l 345 534 l 334 400 "},"q":{"x_min":23.4375,"x_max":504,"ha":512,"o":"m 504 -267 l 329 -251 l 329 4 l 174 4 l 23 170 l 23 634 l 174 803 l 504 868 l 504 -267 m 338 91 l 395 704 l 220 640 l 131 263 l 338 91 "},"b":{"x_min":57,"x_max":517.0625,"ha":539,"o":"m 517 155 l 375 26 l 57 -8 l 57 1052 l 199 1052 l 199 815 l 354 837 l 517 722 l 517 155 m 308 97 l 399 694 l 222 674 l 222 152 l 308 97 "},"D":{"x_min":32.375,"x_max":585,"ha":642,"o":"m 585 154 l 415 -18 l 32 30 l 32 921 l 417 1006 l 585 874 l 585 154 m 431 174 l 431 779 l 386 833 l 207 878 l 139 143 l 357 143 l 431 174 "},"z":{"x_min":13.890625,"x_max":480.5625,"ha":511,"o":"m 480 729 l 177 177 l 443 132 l 473 14 l 115 14 l 13 161 l 316 733 l 75 671 l 75 840 l 394 840 l 480 729 "},"w":{"x_min":22.5,"x_max":694.625,"ha":696,"o":"m 614 0 l 504 45 l 323 326 l 169 1 l 89 56 l 22 761 l 185 865 l 185 355 l 286 608 l 347 622 l 521 277 l 521 822 l 694 892 l 614 0 "},"$":{"x_min":42.109375,"x_max":529.171875,"ha":567,"o":"m 525 132 l 386 -4 l 328 -4 l 328 -101 l 236 -101 l 236 2 l 166 11 l 56 132 l 56 279 l 182 265 l 224 155 l 372 119 l 345 370 l 197 370 l 65 495 l 42 770 l 176 903 l 231 903 l 241 1012 l 330 999 l 330 902 l 400 912 l 511 768 l 529 646 l 388 663 l 345 755 l 212 755 l 187 514 l 377 547 l 525 418 l 525 132 "},"\\":{"x_min":29.171875,"x_max":309.71875,"ha":317,"o":"m 309 -126 l 202 -191 l 29 1013 l 198 1100 l 309 -126 "},"-":{"x_min":61,"x_max":345.71875,"ha":400,"o":"m 334 400 l 61 400 l 61 534 l 345 534 l 334 400 "},"Q":{"x_min":71,"x_max":618.734375,"ha":634,"o":"m 618 8 l 525 -120 l 405 9 l 208 -20 l 71 232 l 71 827 l 220 1016 l 401 1016 l 584 795 l 584 178 l 512 111 l 618 8 m 396 127 l 396 836 l 240 893 l 240 184 l 396 127 "},"M":{"x_min":65,"x_max":815.5,"ha":834,"o":"m 815 10 l 593 29 l 651 631 l 448 334 l 403 334 l 239 610 l 228 557 l 228 15 l 65 -7 l 65 1013 l 205 1034 l 409 584 l 647 973 l 815 1087 l 815 10 "},"C":{"x_min":36,"x_max":600,"ha":642,"o":"m 594 188 l 408 -11 l 218 10 l 36 178 l 36 841 l 220 996 l 430 996 l 600 836 l 581 665 l 406 694 l 447 807 l 225 859 l 225 185 l 416 138 l 461 315 l 594 338 l 594 188 "},"[":{"x_min":174,"x_max":403.21875,"ha":463,"o":"m 403 -138 l 174 -41 l 174 1163 l 397 1163 l 397 1029 l 256 967 l 256 -4 l 403 -4 l 403 -138 "},"L":{"x_min":44,"x_max":506.5,"ha":525,"o":"m 489 35 l 44 35 l 44 1017 l 182 924 l 256 157 l 506 187 l 489 35 "},"!":{"x_min":60,"x_max":261,"ha":332,"o":"m 261 670 q 249 611 261 631 l 243 566 l 208 290 l 121 290 l 89 545 q 77 609 85 549 q 60 659 73 640 l 60 1012 l 216 986 l 261 670 m 216 20 l 73 0 l 73 138 l 248 180 l 216 20 "}," ":{"x_min":0,"x_max":0,"ha":418},"X":{"x_min":42.890625,"x_max":601,"ha":625,"o":"m 601 4 l 408 4 l 408 400 l 335 461 l 305 465 l 239 405 l 239 10 l 54 -32 l 54 450 l 197 590 l 42 987 l 272 1036 l 317 640 l 322 657 l 387 1017 l 581 980 l 473 573 l 601 466 l 601 4 "},"P":{"x_min":28,"x_max":585.390625,"ha":620,"o":"m 585 525 l 418 357 l 190 387 l 243 -20 l 28 36 l 28 986 l 407 1021 l 585 854 l 585 525 m 367 486 l 453 806 l 209 893 l 209 576 l 367 486 "},"%":{"x_min":10,"x_max":805,"ha":815,"o":"m 345 580 l 268 509 l 108 496 l 10 586 l 10 834 l 89 896 l 259 911 l 345 848 l 345 580 m 805 68 l 715 -8 l 567 5 l 471 79 l 471 335 l 553 398 l 727 398 l 805 344 l 805 68 m 789 814 l 149 -5 l 90 9 l 670 903 l 789 814 m 695 96 l 695 310 l 595 310 l 595 96 l 695 96 m 223 607 l 223 801 l 124 814 l 124 607 l 223 607 "},"#":{"x_min":-22.609375,"x_max":564.953125,"ha":566,"o":"m 564 663 l 546 532 l 463 543 l 434 372 l 508 372 l 508 245 l 426 245 l 399 83 l 289 83 l 317 236 l 167 236 l 148 82 l 51 82 l 51 237 l -22 248 l -4 365 l 87 376 l 105 531 l 28 531 l 46 662 l 116 643 l 156 826 l 262 816 l 232 665 l 369 665 l 398 812 l 508 829 l 488 663 l 564 663 m 356 525 l 223 537 l 195 376 l 321 351 l 356 525 "},"_":{"x_min":0,"x_max":702.78125,"ha":694,"o":"m 686 -311 l 0 -311 l 0 -170 l 702 -170 l 686 -311 "},"+":{"x_min":26,"x_max":555.5625,"ha":567,"o":"m 536 385 l 350 329 l 350 142 l 230 190 l 210 327 l 26 356 l 26 473 l 220 473 l 190 695 l 313 663 l 345 484 l 555 504 l 536 385 "},")":{"x_min":32.375,"x_max":396,"ha":463,"o":"m 396 161 l 133 -94 l 42 -16 l 231 218 l 231 833 l 32 1014 l 125 1136 l 396 924 l 396 161 "},"'":{"x_min":36,"x_max":183,"ha":227,"o":"m 183 639 l 36 614 l 36 988 l 183 1040 l 183 639 "},"T":{"x_min":21.15625,"x_max":517.953125,"ha":536,"o":"m 517 836 l 386 901 l 386 0 l 217 51 l 217 907 l 21 819 l 21 1028 l 517 1028 l 517 836 "},"a":{"x_min":49,"x_max":553.390625,"ha":578,"o":"m 540 18 l 202 18 l 49 138 l 49 690 l 175 844 l 503 787 l 503 144 l 553 154 l 540 18 m 318 95 l 382 668 l 202 708 l 202 151 l 318 95 "},"=":{"x_min":24,"x_max":550.890625,"ha":568,"o":"m 537 549 l 24 549 l 24 684 l 550 684 l 537 549 m 523 277 l 37 277 l 37 379 l 542 379 l 523 277 "},"N":{"x_min":75,"x_max":651.78125,"ha":671,"o":"m 651 4 l 417 4 l 464 198 l 219 653 l 224 566 l 224 15 l 75 -8 l 75 986 l 205 1035 l 432 568 l 522 1003 l 651 1086 l 651 4 "},"2":{"x_min":33,"x_max":540.21875,"ha":567,"o":"m 520 26 l 33 -18 l 33 319 l 394 582 l 356 789 l 187 758 l 222 628 l 58 628 l 39 766 l 184 924 l 404 903 l 518 793 l 518 569 l 212 236 l 160 108 l 540 224 l 520 26 "},"j":{"x_min":-92,"x_max":231,"ha":294,"o":"m 231 -126 l 79 -288 l -92 -288 l -92 -136 l 50 -196 l 50 833 l 231 902 l 231 -126 m 221 918 l 56 902 l 56 1051 l 203 1030 l 221 918 "},"Z":{"x_min":10,"x_max":571.109375,"ha":608,"o":"m 571 888 l 164 212 l 530 151 l 564 16 l 137 16 l 16 196 l 366 895 l 10 813 l 10 1021 l 471 1021 l 571 888 "},"u":{"x_min":54,"x_max":544.375,"ha":553,"o":"m 504 16 l 148 -16 l 54 133 l 54 831 l 196 765 l 196 187 l 229 140 l 368 179 l 368 831 l 544 756 l 483 141 l 538 227 l 504 16 "},"1":{"x_min":82.109375,"x_max":507.265625,"ha":567,"o":"m 492 11 l 82 11 l 82 165 l 173 108 l 232 776 l 96 732 l 96 836 l 190 915 l 367 865 l 367 99 l 507 170 l 492 11 "},"k":{"x_min":71,"x_max":521.265625,"ha":525,"o":"m 447 0 l 331 15 l 331 321 l 301 416 l 210 341 l 210 0 l 71 63 l 71 1028 l 223 1089 l 223 485 l 226 501 l 325 833 l 490 804 l 372 478 l 521 384 l 447 0 "},"<":{"x_min":26,"x_max":539.890625,"ha":566,"o":"m 524 212 l 26 394 l 26 550 l 526 743 l 526 580 l 191 483 l 539 327 l 524 212 "},"t":{"x_min":24,"x_max":433.390625,"ha":451,"o":"m 433 686 l 282 736 l 282 0 l 86 27 l 169 741 l 24 690 l 24 828 l 172 828 l 126 1052 l 315 1017 l 258 834 l 433 834 l 433 686 "},"W":{"x_min":26.78125,"x_max":860.109375,"ha":831,"o":"m 736 0 l 651 96 l 397 428 l 235 0 l 154 43 l 26 988 l 249 1056 l 249 400 l 394 716 l 404 716 l 600 372 l 667 925 l 860 1087 l 736 0 "},"v":{"x_min":1.390625,"x_max":566.671875,"ha":529,"o":"m 566 863 l 394 120 l 159 -6 l 1 831 l 181 694 l 265 141 l 277 184 l 416 810 l 566 863 "},">":{"x_min":22,"x_max":538.890625,"ha":567,"o":"m 523 423 l 25 182 l 25 333 l 350 482 l 22 593 l 22 772 l 538 535 l 523 423 "},"s":{"x_min":32.109375,"x_max":504.390625,"ha":539,"o":"m 503 155 l 357 -30 l 200 0 l 46 137 l 46 255 l 139 240 l 212 119 l 366 154 l 336 305 l 297 330 l 177 347 l 32 471 l 52 692 l 190 816 l 359 816 l 504 686 l 489 551 l 397 600 l 337 678 l 184 695 l 151 582 l 236 483 l 364 521 l 503 372 l 503 155 "},"B":{"x_min":90,"x_max":598,"ha":631,"o":"m 598 147 l 430 -32 l 90 85 l 90 1008 l 438 1008 l 571 891 l 571 609 l 484 538 l 598 461 l 598 147 m 415 192 l 415 456 l 237 417 l 237 160 l 415 192 m 385 589 l 416 852 l 228 813 l 228 556 l 385 589 "},"?":{"x_min":47,"x_max":581.71875,"ha":614,"o":"m 520 630 l 395 454 l 412 305 l 277 277 l 227 498 l 385 660 l 367 822 l 216 894 l 244 674 l 47 674 l 47 881 l 191 993 l 422 1017 l 581 889 l 520 630 m 380 34 l 223 0 l 255 168 l 416 168 l 380 34 "},"H":{"x_min":87,"x_max":631.265625,"ha":649,"o":"m 631 9 l 404 -31 l 461 440 l 253 472 l 253 -15 l 87 84 l 87 1003 l 241 1022 l 241 618 l 461 585 l 403 1017 l 631 1086 l 631 9 "},"c":{"x_min":29,"x_max":503.890625,"ha":539,"o":"m 490 155 l 344 -8 l 183 9 l 29 146 l 29 690 l 184 816 l 360 816 l 503 686 l 488 546 l 384 572 l 337 678 l 197 703 l 197 153 l 354 122 l 354 278 l 490 242 l 490 155 "},"&":{"x_min":54,"x_max":783.5,"ha":768,"o":"m 783 4 l 594 4 l 525 88 l 430 -11 l 177 -11 l 54 139 l 54 404 l 179 494 l 76 583 l 76 811 l 209 945 l 377 918 l 521 834 l 521 563 l 386 471 l 526 303 l 657 397 l 754 305 l 643 203 l 783 4 m 441 180 l 280 378 l 246 344 l 246 158 l 389 158 l 441 180 m 346 624 l 346 766 l 234 766 l 234 642 l 287 568 l 346 624 "},"I":{"x_min":81,"x_max":282,"ha":304,"o":"m 282 9 l 81 -51 l 81 995 l 282 1086 l 282 9 "},"G":{"x_min":30.734375,"x_max":600,"ha":642,"o":"m 600 198 l 423 2 l 234 2 l 30 144 l 30 848 l 211 1021 l 429 1021 l 597 823 l 597 645 l 447 708 l 416 833 l 251 902 l 175 203 l 400 138 l 492 416 l 321 345 l 321 506 l 600 552 l 600 198 "},"(":{"x_min":99,"x_max":428.453125,"ha":463,"o":"m 428 -6 l 361 -76 l 99 134 l 99 881 l 334 1121 l 425 1006 l 234 858 l 234 212 l 428 -6 "},"U":{"x_min":81,"x_max":616.78125,"ha":642,"o":"m 616 189 l 426 11 l 214 -20 l 81 245 l 81 1003 l 239 1042 l 239 186 l 386 133 l 469 1004 l 616 1072 l 616 189 "},"F":{"x_min":43,"x_max":479.28125,"ha":504,"o":"m 462 921 l 256 874 l 191 584 l 439 614 l 439 439 l 181 496 l 236 12 l 43 -51 l 43 1026 l 479 1026 l 462 921 "},"r":{"x_min":25.4375,"x_max":477,"ha":505,"o":"m 477 553 l 371 596 l 319 731 l 172 625 l 279 3 l 81 3 l 81 714 l 25 689 l 25 804 l 356 838 l 477 733 l 477 553 "},":":{"x_min":71,"x_max":272,"ha":340,"o":"m 272 608 l 71 588 l 71 796 l 272 796 l 272 608 m 264 15 l 81 15 l 81 187 l 264 187 l 264 15 "},"x":{"x_min":33.5,"x_max":507,"ha":539,"o":"m 507 4 l 343 4 l 343 313 l 294 359 l 243 365 l 200 322 l 200 9 l 46 -26 l 46 366 l 155 477 l 33 810 l 223 851 l 263 500 l 274 515 l 331 833 l 491 804 l 406 462 l 507 398 l 507 4 "},"*":{"x_min":92,"x_max":475.78125,"ha":567,"o":"m 474 566 l 435 527 l 321 634 l 321 515 l 257 515 l 257 620 l 134 516 l 97 563 l 209 675 l 92 675 l 92 750 l 198 750 l 94 866 l 137 898 l 257 795 l 257 912 l 311 898 l 327 809 l 431 911 l 475 869 l 357 754 l 473 744 l 473 692 l 373 692 l 474 566 "},"V":{"x_min":1.390625,"x_max":636.109375,"ha":651,"o":"m 636 1058 l 491 138 l 191 -8 l 1 1013 l 161 972 l 315 173 l 338 230 l 511 972 l 636 1058 "},"h":{"x_min":57,"x_max":544.5,"ha":567,"o":"m 454 0 l 357 0 l 357 695 l 138 556 l 215 13 l 57 -8 l 57 1051 l 212 1051 l 157 747 l 354 838 l 544 734 l 454 0 "},"0":{"x_min":58,"x_max":516.390625,"ha":566,"o":"m 516 139 l 413 10 l 173 10 l 58 154 l 58 793 l 166 893 l 398 917 l 516 813 l 516 139 m 324 107 l 416 731 l 215 795 l 215 167 l 324 107 "},".":{"x_min":35.828125,"x_max":215,"ha":308,"o":"m 215 22 l 67 -22 l 35 186 l 215 134 l 215 22 "},"@":{"x_min":37.109375,"x_max":947,"ha":991,"o":"m 947 56 l 826 1 l 369 1 l 301 55 l 301 330 l 370 404 l 557 404 l 557 551 l 320 551 l 332 640 l 600 640 l 668 603 l 668 71 l 836 113 l 836 758 l 201 758 l 124 -104 l 669 -156 l 712 -221 l 112 -221 l 37 -129 l 37 816 l 99 864 l 854 864 l 947 872 l 947 56 m 569 144 l 555 302 l 394 326 l 394 66 l 569 144 "},"f":{"x_min":1,"x_max":382,"ha":346,"o":"m 382 905 l 226 923 l 226 773 l 348 832 l 348 672 l 247 694 l 247 9 l 75 -57 l 75 713 l 1 677 l 1 826 l 108 795 l 77 889 l 223 1053 l 382 1053 l 382 905 "},";":{"x_min":73.671875,"x_max":269.328125,"ha":340,"o":"m 261 33 l 144 -159 l 73 -108 l 155 7 l 82 -5 l 82 199 l 261 199 l 261 33 m 269 613 l 93 597 l 93 793 l 248 768 l 269 613 "},"i":{"x_min":40,"x_max":262.21875,"ha":297,"o":"m 138 0 l 40 -41 l 40 835 l 262 890 l 138 0 m 196 951 l 55 915 l 70 1014 l 209 1047 l 196 951 "},"6":{"x_min":58,"x_max":538.453125,"ha":566,"o":"m 534 133 l 398 6 l 160 6 l 58 163 l 58 770 l 181 909 l 409 909 l 519 768 l 538 635 l 357 620 l 357 753 l 194 796 l 194 502 l 398 547 l 534 435 l 534 133 m 347 144 l 416 393 l 219 375 l 219 115 l 347 144 "},"A":{"x_min":32,"x_max":632,"ha":658,"o":"m 632 -13 l 400 -43 l 491 307 l 176 226 l 245 -15 l 32 30 l 32 794 l 236 972 l 632 1036 l 632 -13 m 454 466 l 525 885 l 247 826 l 223 722 l 169 393 l 454 466 "},"n":{"x_min":31.609375,"x_max":561,"ha":610,"o":"m 561 5 l 444 -2 l 383 686 l 183 621 l 246 11 l 83 -6 l 83 679 l 31 687 l 31 803 l 406 844 l 561 733 l 561 5 "},"O":{"x_min":58,"x_max":646,"ha":650,"o":"m 572 201 l 434 7 l 236 7 l 58 205 l 58 846 l 225 995 l 422 1021 l 646 885 l 572 201 m 375 119 l 458 788 l 246 858 l 246 186 l 375 119 "},"3":{"x_min":26,"x_max":539.671875,"ha":566,"o":"m 484 139 l 391 -1 l 169 -1 l 41 115 l 26 269 l 201 285 l 201 139 l 354 173 l 354 431 l 221 431 l 187 556 l 340 729 l 95 815 l 81 906 l 498 906 l 498 757 l 338 549 l 420 563 l 539 464 l 484 139 "},"]":{"x_min":61.28125,"x_max":378,"ha":463,"o":"m 378 -142 l 68 -142 l 68 -15 l 196 31 l 196 1029 l 61 1012 l 61 1181 l 378 1269 l 378 -142 "},"m":{"x_min":26.5625,"x_max":852,"ha":892,"o":"m 852 5 l 684 36 l 684 678 l 553 718 l 553 -11 l 396 -11 l 396 686 l 180 621 l 252 11 l 89 -6 l 89 681 l 26 688 l 26 786 l 688 847 l 852 733 l 852 5 "},"9":{"x_min":33.390625,"x_max":546,"ha":567,"o":"m 546 133 l 395 6 l 158 6 l 42 132 l 42 275 l 218 275 l 218 167 l 357 103 l 357 417 l 172 368 l 33 506 l 33 793 l 163 893 l 395 917 l 546 836 l 546 133 m 344 518 l 416 766 l 158 766 l 219 518 l 344 518 "},"l":{"x_min":42,"x_max":263,"ha":259,"o":"m 263 1 l 183 1 l 42 184 l 42 1051 l 237 972 l 167 176 l 263 153 l 263 1 "},"8":{"x_min":46.046875,"x_max":529,"ha":567,"o":"m 529 132 l 386 0 l 184 38 l 86 174 l 64 363 l 173 470 l 46 548 l 68 795 l 190 907 l 382 907 l 516 819 l 469 591 l 402 473 l 529 383 l 529 132 m 360 524 l 360 737 l 203 772 l 203 594 l 360 524 m 371 152 l 371 380 l 221 402 l 182 231 l 371 152 "},"p":{"x_min":-1,"x_max":507.21875,"ha":539,"o":"m 353 6 l 208 18 l 208 -302 l 75 -207 l 75 679 l -1 774 l -1 846 l 351 812 l 507 715 l 507 161 l 353 6 m 397 672 l 210 728 l 210 151 l 337 104 l 397 672 "},"4":{"x_min":29.34375,"x_max":577,"ha":567,"o":"m 577 189 l 448 189 l 500 9 l 321 -13 l 321 222 l 107 158 l 29 355 l 319 933 l 465 874 l 465 334 l 577 334 l 577 189 m 326 305 l 326 643 l 173 334 l 326 305 "},"R":{"x_min":90,"x_max":586.109375,"ha":625,"o":"m 515 0 l 407 22 l 407 364 l 334 435 l 252 463 l 252 -14 l 90 85 l 90 1008 l 438 1008 l 570 891 l 570 606 l 479 520 l 586 384 l 515 0 m 386 584 l 407 820 l 225 905 l 225 636 l 386 584 "},"o":{"x_min":33,"x_max":505.21875,"ha":545,"o":"m 505 156 l 364 6 l 199 6 l 33 169 l 33 695 l 189 816 l 353 838 l 505 723 l 505 156 m 314 97 l 402 624 l 199 718 l 138 200 l 314 97 "},"5":{"x_min":33,"x_max":533,"ha":566,"o":"m 533 133 l 405 -4 l 175 -4 l 33 112 l 33 297 l 197 297 l 210 166 l 352 140 l 416 433 l 189 407 l 33 487 l 80 938 l 464 903 l 464 757 l 202 822 l 202 549 l 395 571 l 533 460 l 533 133 "}}}
